<svg xmlns="http://www.w3.org/2000/svg" xmlns:xlink="http://www.w3.org/1999/xlink" width="128" height="128"><defs><clipPath id="o"><path d="M0 0h128v128H0z"/></clipPath><clipPath id="t"><path d="M0 0h128v128H0z"/></clipPath><clipPath id="b"><path d="M0 0h192v152H0z"/></clipPath><clipPath id="d"><path d="M0 0h192v152H0z"/></clipPath><clipPath id="r"><path d="M0 0h128v128H0z"/></clipPath><clipPath id="e"><path d="M0 0h192v152H0z"/></clipPath><clipPath id="g"><path d="M0 0h192v152H0z"/></clipPath><clipPath id="h"><path d="M0 0h128v128H0z"/></clipPath><mask id="v"><g filter="url(#a)"><path fill-opacity=".8" d="M0 0h128v128H0z"/></g></mask><mask id="m"><g filter="url(#a)"><path fill-opacity=".236" d="M0 0h128v128H0z"/></g></mask><mask id="B"><use xlink:href="#q"/></mask><mask id="y"><g filter="url(#a)"><path fill-opacity=".236" d="M0 0h128v128H0z"/></g></mask><mask id="x"><g filter="url(#a)"><path fill-opacity=".05" d="M0 0h128v128H0z"/></g></mask><mask id="k"><g filter="url(#a)"><path fill-opacity=".05" d="M0 0h128v128H0z"/></g></mask><g id="A" clip-path="url(#t)"><use xlink:href="#u" mask="url(#v)"/></g><g id="j" clip-path="url(#b)"><path d="M16 104h84V36H16zm0 0" fill="url(#c)"/></g><g id="q" clip-path="url(#o)" filter="url(#a)"><use xlink:href="#p"/></g><g id="l" clip-path="url(#d)"><path d="M16 74h26l10-23 6 39 8-16h34" fill="none" stroke-width="4" stroke="#e5a50a" stroke-miterlimit="10"/></g><g id="p" clip-path="url(#h)"><path d="M16 28h96a8 8 0 018 8v70a8 8 0 01-8 8H16a8 8 0 01-8-8V36a8 8 0 018-8zm0 0" fill="#f6f5f4"/><path d="M16 32h84c2.21 0 4 1.79 4 4v68c0 2.21-1.79 4-4 4H16c-2.21 0-4-1.79-4-4V36c0-2.21 1.79-4 4-4zm0 0" fill="#241f31"/><path d="M8 104v4c0 4.434 3.566 8 8 8h96c4.434 0 8-3.566 8-8v-4c0 4.434-3.566 8-8 8H16a7.98 7.98 0 01-8-8zm0 0" fill="url(#i)"/><use xlink:href="#j" mask="url(#k)"/><use xlink:href="#l" mask="url(#m)"/><path d="M16 246h26l10-23 6 39 8-16h6" transform="translate(0 -172)" fill="none" stroke-width="4" stroke-linecap="round" stroke="url(#n)" stroke-miterlimit="10"/><path d="M116 62v4c0 2.21-1.79 4-4 4s-4-1.79-4-4v-2l4-2zm0 0M116 78v6h-4c-2.215 0-4-1.785-4-4v-2zm0 0" fill="#949390"/><path d="M116 82v-4c0-2.21-1.79-4-4-4s-4 1.79-4 4 1.79 4 4 4zm0 0" fill="#d5d3cf"/><path d="M113 80c0 .55.45 1 1 1s1-.45 1-1-.45-1-1-1-1 .45-1 1zm0 0" fill="#68676b"/><path d="M116 60v4c0 2.21-1.79 4-4 4s-4-1.79-4-4 1.79-4 4-4zm0 0" fill="#d5d3cf"/><path d="M113 62c0-.55.45-1 1-1s1 .45 1 1-.45 1-1 1-1-.45-1-1zm0 0" fill="#68676b"/><path d="M108 48v4c0 2.21 1.79 4 4 4s4-1.79 4-4v-2l-4-2zm0 0" fill="#949390"/><path d="M108 46v4c0 2.21 1.79 4 4 4s4-1.79 4-4-1.79-4-4-4zm0 0" fill="#d5d3cf"/><path d="M111 48c0-.55-.45-1-1-1s-1 .45-1 1 .45 1 1 1 1-.45 1-1zm0 0" fill="#68676b"/><path d="M116 36v6h-4c-2.215 0-4-1.785-4-4v-2zm0 0" fill="#949390"/><path d="M116 40v-4c0-2.21-1.79-4-4-4s-4 1.79-4 4 1.79 4 4 4zm0 0" fill="#d5d3cf"/><path d="M113 38c0 .55.45 1 1 1s1-.45 1-1-.45-1-1-1-1 .45-1 1zm0 0" fill="#68676b"/></g><g id="u" clip-path="url(#r)"><path d="M128 80.64V128H0V80.64zm0 0" fill="url(#s)"/><path d="M13.309 80.64L60.664 128H81.88l-47.36-47.36zm42.421 0L103.094 128h21.215L76.945 80.64zm42.43 0L128 110.48V89.27l-8.629-8.63zM0 88.548v21.215L18.238 128h21.215zm0 0"/></g><linearGradient id="n" gradientUnits="userSpaceOnUse" x1="301" y1="33.559" x2="104" y2="33.559" gradientTransform="matrix(.25 0 0 .25 -2 233)"><stop offset="0" stop-color="#f9f06b"/><stop offset="1" stop-color="#f9f06b" stop-opacity="0"/></linearGradient><linearGradient id="s" gradientUnits="userSpaceOnUse" x1="300" y1="235" x2="428" y2="235" gradientTransform="matrix(0 .37 -.98462 0 295.385 -30.36)"><stop offset="0" stop-color="#f9f06b"/><stop offset="1" stop-color="#f5c211"/></linearGradient><linearGradient id="i" gradientUnits="userSpaceOnUse" x1="120" y1="619.964" x2="568" y2="619.964" gradientTransform="matrix(.25 0 0 .25 -22 -50.991)"><stop offset="0" stop-color="#d5d3cf"/><stop offset=".036" stop-color="#e4e1de"/><stop offset=".071" stop-color="#d5d3cf"/><stop offset=".929" stop-color="#d5d3cf"/><stop offset=".964" stop-color="#e4e1de"/><stop offset="1" stop-color="#d5d3cf"/></linearGradient><linearGradient id="z" gradientUnits="userSpaceOnUse" x1="301" y1="33.559" x2="104" y2="33.559" gradientTransform="matrix(.25 0 0 .25 -2 233)"><stop offset="0" stop-color="#f9f06b"/><stop offset="1" stop-color="#f9f06b" stop-opacity="0"/></linearGradient><linearGradient id="w" gradientUnits="userSpaceOnUse" x1="120" y1="619.964" x2="568" y2="619.964" gradientTransform="matrix(.25 0 0 .25 -22 -50.991)"><stop offset="0" stop-color="#d5d3cf"/><stop offset=".036" stop-color="#e4e1de"/><stop offset=".071" stop-color="#d5d3cf"/><stop offset=".929" stop-color="#d5d3cf"/><stop offset=".964" stop-color="#e4e1de"/><stop offset="1" stop-color="#d5d3cf"/></linearGradient><radialGradient id="f" gradientUnits="userSpaceOnUse" cx="64" cy="194.19" fx="64" fy="194.19" r="44" gradientTransform="matrix(-4.13636 0 0 1.3909 319.227 -170.635)"><stop offset="0" stop-color="#fff"/><stop offset="1" stop-color="#fff" stop-opacity=".094"/></radialGradient><radialGradient id="c" gradientUnits="userSpaceOnUse" cx="64" cy="194.19" fx="64" fy="194.19" r="44" gradientTransform="matrix(-4.13636 0 0 1.3909 319.227 -170.635)"><stop offset="0" stop-color="#fff"/><stop offset="1" stop-color="#fff" stop-opacity=".094"/></radialGradient><filter id="a" filterUnits="objectBoundingBox" x="0%" y="0%" width="100%" height="100%"><feColorMatrix in="SourceGraphic" values="0 0 0 0 1 0 0 0 0 1 0 0 0 0 1 0 0 0 1 0"/></filter></defs><path d="M16 28h96a8 8 0 018 8v70a8 8 0 01-8 8H16a8 8 0 01-8-8V36a8 8 0 018-8zm0 0" fill="#f6f5f4"/><path d="M16 32h84c2.21 0 4 1.79 4 4v68c0 2.21-1.79 4-4 4H16c-2.21 0-4-1.79-4-4V36c0-2.21 1.79-4 4-4zm0 0" fill="#241f31"/><path d="M8 104v4c0 4.434 3.566 8 8 8h96c4.434 0 8-3.566 8-8v-4c0 4.434-3.566 8-8 8H16a7.98 7.98 0 01-8-8zm0 0" fill="url(#w)"/><use xlink:href="#j" mask="url(#x)"/><use xlink:href="#l" mask="url(#y)"/><path d="M16 246h26l10-23 6 39 8-16h6" transform="translate(0 -172)" fill="none" stroke-width="4" stroke-linecap="round" stroke="url(#z)" stroke-miterlimit="10"/><path d="M116 62v4c0 2.21-1.79 4-4 4s-4-1.79-4-4v-2l4-2zm0 0M116 78v6h-4c-2.215 0-4-1.785-4-4v-2zm0 0" fill="#949390"/><path d="M116 82v-4c0-2.21-1.79-4-4-4s-4 1.79-4 4 1.79 4 4 4zm0 0" fill="#d5d3cf"/><path d="M113 80c0 .55.45 1 1 1s1-.45 1-1-.45-1-1-1-1 .45-1 1zm0 0" fill="#68676b"/><path d="M116 60v4c0 2.21-1.79 4-4 4s-4-1.79-4-4 1.79-4 4-4zm0 0" fill="#d5d3cf"/><path d="M113 62c0-.55.45-1 1-1s1 .45 1 1-.45 1-1 1-1-.45-1-1zm0 0" fill="#68676b"/><path d="M108 48v4c0 2.21 1.79 4 4 4s4-1.79 4-4v-2l-4-2zm0 0" fill="#949390"/><path d="M108 46v4c0 2.21 1.79 4 4 4s4-1.79 4-4-1.79-4-4-4zm0 0" fill="#d5d3cf"/><path d="M111 48c0-.55-.45-1-1-1s-1 .45-1 1 .45 1 1 1 1-.45 1-1zm0 0" fill="#68676b"/><path d="M116 36v6h-4c-2.215 0-4-1.785-4-4v-2zm0 0" fill="#949390"/><path d="M116 40v-4c0-2.21-1.79-4-4-4s-4 1.79-4 4 1.79 4 4 4zm0 0" fill="#d5d3cf"/><path d="M113 38c0 .55.45 1 1 1s1-.45 1-1-.45-1-1-1-1 .45-1 1zm0 0" fill="#68676b"/><use xlink:href="#A" mask="url(#B)"/></svg>